#!OML:ASF I:\Actors\actors\Patient Classification 2\Patient 1\Session 1\actor1.ASF
:FULLY-SPECIFIED
:DEGREES
664
root -0.391795 18.0014 5.1208 -3.27884 0.153834 -5.55983
lowerback 25.1753 1.95376 3.78287
upperback 8.20204 3.55738 2.05441
thorax -4.79581 1.73512 -0.935266
lowerneck 0.721149 -13.7072 -12.5244
upperneck 30.1353 -23.6229 17.7621
head 14.0632 -10.4806 5.89435
rclavicle -1.19271e-014 -1.31198e-014
rhumerus -34.5095 78.604 -82.6971
rradius 116.986
rwrist -87.4017
rhand 39.929 -39.7045
rfingers 7.12502
rthumb 62.3363 669.227
lclavicle -1.19271e-014 -1.31198e-014
lhumerus 8.71476 -69.434 68.7012
lradius 107.967
lwrist 31.5133
lhand -6.56818 -18.3712
lfingers 7.12502
lthumb 19.2861 10.6924
rfemur 18.5805 -3.95219 19.2726
rtibia -15.7995
rfoot -7.17529 -17.0465
rtoes -2.0944
lfemur 23.448 -1.83928 -13.2187
ltibia -29.82
lfoot 8.80962 13.5438
ltoes -10.2849
665
root -0.379632 18.0029 5.12198 -3.39371 0.456065 -5.58809
lowerback 25.0853 2.09564 3.74436
upperback 8.25163 3.74168 2.26914
thorax -4.70828 1.826 -0.727211
lowerneck 0.551775 -13.7712 -12.2566
upperneck 30.2319 -23.689 17.6188
head 14.0914 -10.4689 5.77337
rclavicle 2.17669e-014 -7.95139e-015
rhumerus -33.8049 78.5997 -82.1515
rradius 116.971
rwrist -87.449
rhand 39.8639 -39.5381
rfingers 7.12502
rthumb 62.2823 669.324
lclavicle 2.17669e-014 -7.95139e-015
lhumerus 9.27118 -69.3911 68.0469
lradius 108.009
lwrist 31.6124
lhand -6.65867 -18.3623
lfingers 7.12502
lthumb 19.1991 10.71
rfemur 18.5073 -3.99725 19.2547
rtibia -15.3032
rfoot -7.6134 -17.0737
rtoes -1.9753
lfemur 23.4756 -2.03442 -13.2565
ltibia -29.7531
lfoot 8.76336 13.4048
ltoes -10.2141
666
root -0.369523 18.0041 5.12423 -3.61089 0.709833 -5.65898
lowerback 25.0549 2.23666 3.73792
upperback 8.35883 3.93333 2.49981
thorax -4.5868 1.9215 -0.52262
lowerneck 0.457962 -13.8107 -12.0949
upperneck 30.1414 -23.7559 17.7133
head 14.0776 -10.4638 5.76477
rclavicle 2.22639e-014 2.8625e-014
rhumerus -32.9744 78.637 -81.4359
rradius 117.001
rwrist -87.5327
rhand 39.8058 -39.2585
rfingers 7.12502
rthumb 62.234 669.542
lclavicle 2.22639e-014 2.8625e-014
lhumerus 9.8296 -69.2731 67.3895
lradius 108.028
lwrist 31.5888
lhand -6.50027 -18.4261
lfingers 7.12502
lthumb 19.3514 10.631
rfemur 18.5517 -4.06926 19.2722
rtibia -14.8201
rfoot -7.98203 -17.0495
rtoes -1.89125
lfemur 23.6274 -2.0791 -13.223
ltibia -29.6759
lfoot 8.74178 13.1567
ltoes -10.2463
667
root -0.360259 18.0046 5.12597 -3.84487 0.951775 -5.70178
lowerback 25.1265 2.3959 3.53706
upperback 8.43555 4.11627 2.84117
thorax -4.5741 2.00681 -0.0917007
lowerneck 0.39192 -13.8091 -12.1661
upperneck 30.0202 -23.7682 17.8883
head 14.0822 -10.456 5.83634
rclavicle -8.34896e-015 -7.15625e-015
rhumerus -32.0286 78.8393 -80.4639
rradius 117.047
rwrist -87.6587
rhand 39.7123 -39.3562
rfingers 7.12502
rthumb 62.1563 669.346
lclavicle -8.34896e-015 -7.15625e-015
lhumerus 9.96203 -69.0203 67.3087
lradius 107.973
lwrist 31.544
lhand -6.2197 -18.4621
lfingers 7.12502
lthumb 19.6211 10.5677
rfemur 18.5991 -4.15219 19.2557
rtibia -14.3199
rfoot -8.36015 -16.9832
rtoes -1.68529
lfemur 23.7957 -2.09163 -13.2184
ltibia -29.608
lfoot 8.73481 12.9484
ltoes -10.545
668
root -0.350474 18.0053 5.12576 -4.00175 1.2392 -5.74648
lowerback 25.211 2.52953 3.43129
upperback 8.45078 4.28996 3.14352
thorax -4.62814 2.08711 0.243195
lowerneck 0.363625 -13.8071 -12.2229
upperneck 29.8902 -23.7965 18.1109
head 14.0857 -10.4532 5.92534
rclavicle -6.91771e-014 1.15295e-014
rhumerus -30.8777 79.0621 -79.3647
rradius 117.064
rwrist -87.8797
rhand 39.3363 -39.5081
rfingers 7.12502
rthumb 61.8428 668.804
lclavicle -6.91771e-014 1.15295e-014
lhumerus 10.1459 -68.8984 67.1812
lradius 107.943
lwrist 31.6766
lhand -6.29882 -18.2937
lfingers 7.12502
lthumb 19.5451 10.7439
rfemur 18.5522 -4.25619 19.2513
rtibia -13.81
rfoot -8.70845 -16.9486
rtoes -1.73775
lfemur 23.8759 -2.25119 -13.2284
ltibia -29.5623
lfoot 8.70323 12.8748
ltoes -10.6662
